<?xml version="1.0" encoding="utf-8"?>
<!-- Generator: Adobe Illustrator 20.1.0, SVG Export Plug-In . SVG Version: 6.00 Build 0)  -->
<svg version="1.1" id="Layer_1" xmlns="http://www.w3.org/2000/svg" xmlns:xlink="http://www.w3.org/1999/xlink" x="0px" y="0px"
	 viewBox="0 0 586 183" style="enable-background:new 0 0 586 183;" xml:space="preserve">
<style type="text/css">
	.st0{fill:#FDCF74;}
	.st1{fill:#FABD46;}
	.st2{fill:#FDDDA2;}
	.st3{fill:#F69320;}
	.st4{fill:#F9AE19;}
	.st5{fill:#E88024;}
	.st6{fill:#CF5E27;}
	.st7{enable-background:new    ;}
	.st8{fill:#FFFFFF;}
</style>
<polygon class="st0" points="47.1,36.4 14,55.2 14,133 81,171.1 148,132.5 148,55 81,16.7 70,23.1 70,62 81.5,55.1 115,74.4 
	115,113 80.5,133 47.3,113.3 "/>
<g>
	<polygon class="st1" points="114.7,83.4 142.4,74.8 83.3,56.2 114.7,74.4 	"/>
	<polygon class="st2" points="46.9,36.3 37.3,41.8 46.9,44.8 	"/>
	<polygon class="st1" points="18.7,74.8 46.9,83.6 46.9,65.9 	"/>
	<polygon class="st1" points="79.8,55.6 69.6,58.8 69.6,61.5 	"/>
	<polygon class="st3" points="81,132.8 47.3,113.3 46.9,113.1 46.9,112.6 46.9,104.7 18.7,113.6 80.5,133 142.4,113.6 114.7,104.9 
		114.7,113.3 	"/>
	<polygon class="st4" points="46.9,104.7 46.9,83.6 18.7,74.8 14.1,76.2 14.1,112.1 18.7,113.6 	"/>
	<polygon class="st4" points="114.7,83.4 114.7,104.9 142.4,113.6 147.9,111.8 147.9,76.5 142.4,74.8 	"/>
	<polygon class="st5" points="80.5,133 123.7,146.5 147.9,132.5 147.9,115.3 142.4,113.6 	"/>
	<polygon class="st1" points="147.9,76.5 147.9,73 142.4,74.8 	"/>
	<polygon class="st3" points="147.9,115.3 147.9,111.8 142.4,113.6 	"/>
	<polygon class="st2" points="69.6,51.9 80.3,55.3 81,54.9 81.4,55.1 124.4,41.6 81.6,16.9 80.8,16.7 69.6,23.1 	"/>
	<polygon class="st0" points="83.3,56.2 142.4,74.8 147.9,73 147.9,55.2 124.4,41.6 81.4,55.1 	"/>
	<polygon class="st1" points="14.1,73.3 14.1,76.2 18.7,74.8 	"/>
	<polygon class="st0" points="46.9,65.9 46.9,44.8 37.3,41.8 14.1,55.2 14.1,73.3 18.7,74.8 	"/>
	<polygon class="st0" points="79.8,55.6 80.3,55.3 69.6,51.9 69.6,58.8 	"/>
	<polygon class="st6" points="38,146.3 81,171.1 123.7,146.5 80.5,133 	"/>
	<polygon class="st5" points="18.7,113.6 14.1,115 14.1,132.5 38,146.3 80.5,133 	"/>
	<polygon class="st3" points="14.1,112.1 14.1,115 18.7,113.6 	"/>
	<g class="st7">
		<path class="st8" d="M178.9,95.5v21.4h-11.5v-48h28.1v8.8h-16.7v9h11.5v8.9H178.9z"/>
		<path class="st8" d="M201.6,116.9v-48h11.5v48H201.6z"/>
		<path class="st8" d="M262.8,117.3c-19.4,0-15.3-19.8-27.9-19.8v19.4h-11.5v-48h11.4c12.5,0,20.1,4.6,20.1,13.9
			c0,6.5-4.6,10.1-7.9,10.8c7.1,2.1,7.7,14.7,18,14.7L262.8,117.3z M234.9,77.4v12c5.3,0,8.9-1.7,8.9-6.2
			C243.8,79,239.9,77.4,234.9,77.4z"/>
		<path class="st8" d="M269.1,116.9v-48h27.7v8.8h-16.3v8.9h11.9v8.9h-11.9V108h22.5l-2.1,8.9H269.1z"/>
		<path class="st8" d="M308.9,116.9v-48h11.5V108h18.1l-2.1,8.9H308.9z"/>
		<path class="st8" d="M365.6,117.5c-14.1,0-25.3-9-25.3-24.6c0-15.6,11.2-24.6,25.3-24.6s25.4,9,25.4,24.6
			C391,108.5,379.7,117.5,365.6,117.5z M365.6,77.2c-7.5,0-13.7,5.8-13.7,15.6c0,10.1,6.2,15.6,13.7,15.6c7.6,0,13.7-5.6,13.7-15.6
			C379.3,83,373.2,77.2,365.6,77.2z"/>
		<path class="st8" d="M422,117.5c-14.1,0-25.3-9-25.3-24.6c0-15.6,11.2-24.6,25.3-24.6s25.4,9,25.4,24.6
			C447.4,108.5,436.1,117.5,422,117.5z M422,77.2c-7.5,0-13.7,5.8-13.7,15.6c0,10.1,6.2,15.6,13.7,15.6c7.6,0,13.7-5.6,13.7-15.6
			C435.7,83,429.6,77.2,422,77.2z"/>
		<path class="st8" d="M467,103.8v13.1h-11.5v-48h11.6c15.8,0,23.4,7.1,23.4,17.3C490.5,97.4,482.7,103.6,467,103.8z M468,77.7h-1
			V95c0.3,0,0.5,0,0.9,0h0.9c6,0,10.4-3.1,10.4-8.8S474.5,77.7,468,77.7z"/>
		<path class="st8" d="M492.9,117.3c-3.8,0-6.7-2.1-6.7-5.7c0-3.7,2.9-5.7,6.7-5.7c3.9,0,6.9,1.9,6.9,5.7
			C499.8,115.2,496.8,117.3,492.9,117.3z"/>
		<path class="st8" d="M507.1,116.9v-48h11.5v48H507.1z"/>
		<path class="st8" d="M551.9,117.5c-14.1,0-25.3-9-25.3-24.6c0-15.6,11.2-24.6,25.3-24.6s25.4,9,25.4,24.6
			C577.3,108.5,566,117.5,551.9,117.5z M551.9,77.2c-7.5,0-13.7,5.8-13.7,15.6c0,10.1,6.2,15.6,13.7,15.6c7.6,0,13.7-5.6,13.7-15.6
			C565.6,83,559.5,77.2,551.9,77.2z"/>
	</g>
</g>
</svg>
